<mxfile host="app.diagrams.net" modified="2022-10-19T06:24:42.992Z" agent="5.0 (Windows NT 10.0; Win64; x64) AppleWebKit/537.36 (KHTML, like Gecko) Chrome/106.0.0.0 Safari/537.36" etag="eryW28s-yW69x-EAR1aV" version="20.4.1" type="github">
  <diagram id="DjW3hUtIoha090k_IRgp" name="Page-1">
    <mxGraphModel dx="2547" dy="917" grid="1" gridSize="10" guides="1" tooltips="1" connect="1" arrows="1" fold="1" page="1" pageScale="1" pageWidth="850" pageHeight="1100" math="0" shadow="0">
      <root>
        <mxCell id="0" />
        <mxCell id="1" parent="0" />
        <mxCell id="EbcurFLhAqaCf-2c7TV3-18" value="" style="edgeStyle=orthogonalEdgeStyle;rounded=0;orthogonalLoop=1;jettySize=auto;html=1;" parent="1" source="EbcurFLhAqaCf-2c7TV3-2" target="EbcurFLhAqaCf-2c7TV3-17" edge="1">
          <mxGeometry relative="1" as="geometry" />
        </mxCell>
        <mxCell id="Rvb3EEz3BE0fVyhVUVa4-9" value="" style="edgeStyle=orthogonalEdgeStyle;rounded=0;orthogonalLoop=1;jettySize=auto;html=1;strokeColor=#000000;" parent="1" source="EbcurFLhAqaCf-2c7TV3-2" target="Rvb3EEz3BE0fVyhVUVa4-8" edge="1">
          <mxGeometry relative="1" as="geometry" />
        </mxCell>
        <mxCell id="EbcurFLhAqaCf-2c7TV3-2" value="IT Service Desk" style="ellipse;whiteSpace=wrap;html=1;fillColor=#dae8fc;strokeColor=#6c8ebf;" parent="1" vertex="1">
          <mxGeometry x="365" y="40" width="120" height="80" as="geometry" />
        </mxCell>
        <mxCell id="EbcurFLhAqaCf-2c7TV3-8" value="" style="edgeStyle=orthogonalEdgeStyle;rounded=0;orthogonalLoop=1;jettySize=auto;html=1;" parent="1" source="EbcurFLhAqaCf-2c7TV3-5" target="EbcurFLhAqaCf-2c7TV3-7" edge="1">
          <mxGeometry relative="1" as="geometry" />
        </mxCell>
        <mxCell id="EbcurFLhAqaCf-2c7TV3-5" value="HTB CBBH Learning Path" style="whiteSpace=wrap;html=1;fillColor=#f5f5f5;fontColor=#333333;strokeColor=#666666;" parent="1" vertex="1">
          <mxGeometry x="710" y="100" width="120" height="60" as="geometry" />
        </mxCell>
        <mxCell id="EbcurFLhAqaCf-2c7TV3-10" value="" style="edgeStyle=orthogonalEdgeStyle;rounded=0;orthogonalLoop=1;jettySize=auto;html=1;" parent="1" source="EbcurFLhAqaCf-2c7TV3-7" target="EbcurFLhAqaCf-2c7TV3-9" edge="1">
          <mxGeometry relative="1" as="geometry" />
        </mxCell>
        <mxCell id="EbcurFLhAqaCf-2c7TV3-7" value="HTB CBBH Certification Exam" style="whiteSpace=wrap;html=1;fillColor=#f5f5f5;fontColor=#333333;strokeColor=#666666;" parent="1" vertex="1">
          <mxGeometry x="710" y="210" width="120" height="60" as="geometry" />
        </mxCell>
        <mxCell id="EbcurFLhAqaCf-2c7TV3-12" value="Yes" style="edgeStyle=orthogonalEdgeStyle;rounded=0;orthogonalLoop=1;jettySize=auto;html=1;fillColor=#008a00;strokeColor=#80FF00;" parent="1" source="EbcurFLhAqaCf-2c7TV3-9" target="EbcurFLhAqaCf-2c7TV3-11" edge="1">
          <mxGeometry relative="1" as="geometry" />
        </mxCell>
        <mxCell id="EbcurFLhAqaCf-2c7TV3-14" value="No" style="edgeStyle=orthogonalEdgeStyle;rounded=0;orthogonalLoop=1;jettySize=auto;html=1;entryX=0;entryY=0.5;entryDx=0;entryDy=0;fillColor=#e51400;strokeColor=#B20000;" parent="1" source="EbcurFLhAqaCf-2c7TV3-9" target="EbcurFLhAqaCf-2c7TV3-7" edge="1">
          <mxGeometry relative="1" as="geometry">
            <mxPoint x="505" y="360" as="targetPoint" />
            <Array as="points">
              <mxPoint x="545" y="360" />
              <mxPoint x="545" y="220" />
            </Array>
          </mxGeometry>
        </mxCell>
        <mxCell id="EbcurFLhAqaCf-2c7TV3-9" value="Pass?" style="rhombus;whiteSpace=wrap;html=1;fillColor=#fff2cc;strokeColor=#d6b656;" parent="1" vertex="1">
          <mxGeometry x="585" y="280" width="80" height="80" as="geometry" />
        </mxCell>
        <mxCell id="EbcurFLhAqaCf-2c7TV3-76" style="edgeStyle=orthogonalEdgeStyle;rounded=0;orthogonalLoop=1;jettySize=auto;html=1;exitX=0.5;exitY=1;exitDx=0;exitDy=0;entryX=0.5;entryY=0;entryDx=0;entryDy=0;strokeColor=#000000;" parent="1" source="EbcurFLhAqaCf-2c7TV3-11" target="EbcurFLhAqaCf-2c7TV3-22" edge="1">
          <mxGeometry relative="1" as="geometry">
            <Array as="points">
              <mxPoint x="785" y="410" />
              <mxPoint x="570" y="410" />
              <mxPoint x="570" y="375" />
              <mxPoint x="425" y="375" />
            </Array>
          </mxGeometry>
        </mxCell>
        <mxCell id="EbcurFLhAqaCf-2c7TV3-11" value="CBBH Certification" style="ellipse;whiteSpace=wrap;html=1;fillColor=#d5e8d4;strokeColor=#82b366;" parent="1" vertex="1">
          <mxGeometry x="730" y="290" width="120" height="60" as="geometry" />
        </mxCell>
        <mxCell id="EbcurFLhAqaCf-2c7TV3-23" value="No" style="edgeStyle=orthogonalEdgeStyle;rounded=0;orthogonalLoop=1;jettySize=auto;html=1;fillColor=#e51400;strokeColor=#B20000;" parent="1" source="EbcurFLhAqaCf-2c7TV3-17" target="EbcurFLhAqaCf-2c7TV3-22" edge="1">
          <mxGeometry relative="1" as="geometry" />
        </mxCell>
        <mxCell id="EbcurFLhAqaCf-2c7TV3-29" value="Yes" style="edgeStyle=orthogonalEdgeStyle;rounded=0;orthogonalLoop=1;jettySize=auto;html=1;strokeColor=#80FF00;entryX=0.625;entryY=1;entryDx=0;entryDy=0;" parent="1" source="EbcurFLhAqaCf-2c7TV3-17" target="Rvb3EEz3BE0fVyhVUVa4-10" edge="1">
          <mxGeometry relative="1" as="geometry">
            <mxPoint x="230" y="80" as="targetPoint" />
          </mxGeometry>
        </mxCell>
        <mxCell id="EbcurFLhAqaCf-2c7TV3-17" value="Is Tuition&lt;br&gt;Covered?" style="rhombus;whiteSpace=wrap;html=1;fillColor=#fff2cc;strokeColor=#d6b656;" parent="1" vertex="1">
          <mxGeometry x="385" y="170" width="80" height="80" as="geometry" />
        </mxCell>
        <mxCell id="EbcurFLhAqaCf-2c7TV3-69" value="" style="edgeStyle=orthogonalEdgeStyle;rounded=0;orthogonalLoop=1;jettySize=auto;html=1;strokeColor=#000000;" parent="1" source="EbcurFLhAqaCf-2c7TV3-22" target="EbcurFLhAqaCf-2c7TV3-68" edge="1">
          <mxGeometry relative="1" as="geometry" />
        </mxCell>
        <mxCell id="EbcurFLhAqaCf-2c7TV3-22" value="HTB&#39;s Certified Penetration Testing Specialist" style="ellipse;whiteSpace=wrap;html=1;fillColor=#e1d5e7;strokeColor=#9673a6;" parent="1" vertex="1">
          <mxGeometry x="365" y="395" width="120" height="60" as="geometry" />
        </mxCell>
        <mxCell id="EbcurFLhAqaCf-2c7TV3-37" value="" style="edgeStyle=orthogonalEdgeStyle;rounded=0;orthogonalLoop=1;jettySize=auto;html=1;exitX=0;exitY=0.5;exitDx=0;exitDy=0;" parent="1" source="Rvb3EEz3BE0fVyhVUVa4-10" target="EbcurFLhAqaCf-2c7TV3-36" edge="1">
          <mxGeometry relative="1" as="geometry">
            <mxPoint x="170" y="110" as="sourcePoint" />
          </mxGeometry>
        </mxCell>
        <mxCell id="EbcurFLhAqaCf-2c7TV3-39" value="Associates" style="edgeStyle=orthogonalEdgeStyle;rounded=0;orthogonalLoop=1;jettySize=auto;html=1;fillColor=#ffff88;strokeColor=#CCCC00;" parent="1" source="EbcurFLhAqaCf-2c7TV3-36" target="EbcurFLhAqaCf-2c7TV3-38" edge="1">
          <mxGeometry relative="1" as="geometry" />
        </mxCell>
        <mxCell id="EbcurFLhAqaCf-2c7TV3-52" value="Bachelors" style="edgeStyle=orthogonalEdgeStyle;rounded=0;orthogonalLoop=1;jettySize=auto;html=1;exitX=0.5;exitY=1;exitDx=0;exitDy=0;entryX=0.5;entryY=0;entryDx=0;entryDy=0;strokeColor=#CCCC00;" parent="1" source="EbcurFLhAqaCf-2c7TV3-36" target="EbcurFLhAqaCf-2c7TV3-49" edge="1">
          <mxGeometry relative="1" as="geometry">
            <Array as="points">
              <mxPoint x="93" y="240" />
              <mxPoint x="203" y="240" />
            </Array>
          </mxGeometry>
        </mxCell>
        <mxCell id="EbcurFLhAqaCf-2c7TV3-36" value="Associates&lt;br&gt;or &lt;br&gt;Bachelors" style="rhombus;whiteSpace=wrap;html=1;fillColor=#fff2cc;strokeColor=#d6b656;" parent="1" vertex="1">
          <mxGeometry x="40" y="137.5" width="105" height="90" as="geometry" />
        </mxCell>
        <mxCell id="EbcurFLhAqaCf-2c7TV3-41" value="Yes" style="edgeStyle=orthogonalEdgeStyle;rounded=0;orthogonalLoop=1;jettySize=auto;html=1;strokeColor=#80FF00;" parent="1" source="EbcurFLhAqaCf-2c7TV3-38" target="EbcurFLhAqaCf-2c7TV3-40" edge="1">
          <mxGeometry x="0.3786" relative="1" as="geometry">
            <mxPoint y="1" as="offset" />
          </mxGeometry>
        </mxCell>
        <mxCell id="EbcurFLhAqaCf-2c7TV3-43" value="No" style="edgeStyle=orthogonalEdgeStyle;rounded=0;orthogonalLoop=1;jettySize=auto;html=1;fillColor=#e51400;strokeColor=#B20000;" parent="1" source="EbcurFLhAqaCf-2c7TV3-38" target="EbcurFLhAqaCf-2c7TV3-42" edge="1">
          <mxGeometry relative="1" as="geometry" />
        </mxCell>
        <mxCell id="EbcurFLhAqaCf-2c7TV3-38" value="Out of state&lt;br&gt;&amp;nbsp;credit allowed?" style="rhombus;whiteSpace=wrap;html=1;fillColor=#fff2cc;strokeColor=#d6b656;" parent="1" vertex="1">
          <mxGeometry x="-205" y="132.5" width="105" height="100" as="geometry" />
        </mxCell>
        <mxCell id="EbcurFLhAqaCf-2c7TV3-62" style="edgeStyle=orthogonalEdgeStyle;rounded=0;orthogonalLoop=1;jettySize=auto;html=1;exitX=0.5;exitY=1;exitDx=0;exitDy=0;entryX=0.5;entryY=0;entryDx=0;entryDy=0;strokeColor=#000000;" parent="1" source="EbcurFLhAqaCf-2c7TV3-40" target="EbcurFLhAqaCf-2c7TV3-61" edge="1">
          <mxGeometry relative="1" as="geometry">
            <Array as="points">
              <mxPoint x="-152" y="630" />
            </Array>
          </mxGeometry>
        </mxCell>
        <mxCell id="EbcurFLhAqaCf-2c7TV3-40" value="Finish Engineering Physics Degree" style="ellipse;whiteSpace=wrap;html=1;fillColor=#d5e8d4;strokeColor=#82b366;" parent="1" vertex="1">
          <mxGeometry x="-212.5" y="490" width="120" height="60" as="geometry" />
        </mxCell>
        <mxCell id="EbcurFLhAqaCf-2c7TV3-56" style="edgeStyle=orthogonalEdgeStyle;rounded=0;orthogonalLoop=1;jettySize=auto;html=1;exitX=0.5;exitY=1;exitDx=0;exitDy=0;entryX=0.5;entryY=0;entryDx=0;entryDy=0;" parent="1" source="EbcurFLhAqaCf-2c7TV3-42" target="EbcurFLhAqaCf-2c7TV3-54" edge="1">
          <mxGeometry relative="1" as="geometry" />
        </mxCell>
        <mxCell id="EbcurFLhAqaCf-2c7TV3-42" value="IT Support Specialist A.A.S. &lt;br&gt;(Cybersecurity focus)" style="ellipse;whiteSpace=wrap;html=1;fillColor=#d5e8d4;strokeColor=#82b366;" parent="1" vertex="1">
          <mxGeometry x="-630" y="145" width="140" height="75" as="geometry" />
        </mxCell>
        <mxCell id="EbcurFLhAqaCf-2c7TV3-49" value="Homeland Security and Emergency Management" style="ellipse;whiteSpace=wrap;html=1;fillColor=#d5e8d4;strokeColor=#82b366;" parent="1" vertex="1">
          <mxGeometry x="120" y="250" width="165" height="125" as="geometry" />
        </mxCell>
        <mxCell id="EbcurFLhAqaCf-2c7TV3-51" style="edgeStyle=orthogonalEdgeStyle;rounded=0;orthogonalLoop=1;jettySize=auto;html=1;exitX=0.5;exitY=1;exitDx=0;exitDy=0;" parent="1" source="EbcurFLhAqaCf-2c7TV3-49" target="EbcurFLhAqaCf-2c7TV3-49" edge="1">
          <mxGeometry relative="1" as="geometry" />
        </mxCell>
        <mxCell id="EbcurFLhAqaCf-2c7TV3-67" value="No" style="edgeStyle=orthogonalEdgeStyle;rounded=0;orthogonalLoop=1;jettySize=auto;html=1;fillColor=#e51400;strokeColor=#B20000;exitX=0.5;exitY=1;exitDx=0;exitDy=0;" parent="1" source="EbcurFLhAqaCf-2c7TV3-54" target="EbcurFLhAqaCf-2c7TV3-66" edge="1">
          <mxGeometry relative="1" as="geometry" />
        </mxCell>
        <mxCell id="Rvb3EEz3BE0fVyhVUVa4-5" value="Yes" style="edgeStyle=orthogonalEdgeStyle;rounded=0;orthogonalLoop=1;jettySize=auto;html=1;strokeColor=#80FF00;" parent="1" source="EbcurFLhAqaCf-2c7TV3-54" target="Rvb3EEz3BE0fVyhVUVa4-4" edge="1">
          <mxGeometry relative="1" as="geometry" />
        </mxCell>
        <mxCell id="EbcurFLhAqaCf-2c7TV3-54" value="Allow for &lt;br&gt;Multiple Degrees?" style="rhombus;whiteSpace=wrap;html=1;fillColor=#fff2cc;strokeColor=#d6b656;" parent="1" vertex="1">
          <mxGeometry x="-608.75" y="320" width="97.5" height="95" as="geometry" />
        </mxCell>
        <mxCell id="EbcurFLhAqaCf-2c7TV3-63" style="edgeStyle=orthogonalEdgeStyle;rounded=0;orthogonalLoop=1;jettySize=auto;html=1;entryX=0;entryY=0.5;entryDx=0;entryDy=0;strokeColor=#80FF00;" parent="1" source="EbcurFLhAqaCf-2c7TV3-61" target="EbcurFLhAqaCf-2c7TV3-42" edge="1">
          <mxGeometry relative="1" as="geometry" />
        </mxCell>
        <mxCell id="EbcurFLhAqaCf-2c7TV3-64" value="Yes" style="edgeLabel;html=1;align=center;verticalAlign=middle;resizable=0;points=[];" parent="EbcurFLhAqaCf-2c7TV3-63" vertex="1" connectable="0">
          <mxGeometry x="-0.4947" y="-3" relative="1" as="geometry">
            <mxPoint x="40" y="3" as="offset" />
          </mxGeometry>
        </mxCell>
        <mxCell id="Rvb3EEz3BE0fVyhVUVa4-14" value="No" style="edgeStyle=orthogonalEdgeStyle;rounded=0;orthogonalLoop=1;jettySize=auto;html=1;strokeColor=#B20000;fillColor=#e51400;" parent="1" source="EbcurFLhAqaCf-2c7TV3-61" target="Rvb3EEz3BE0fVyhVUVa4-13" edge="1">
          <mxGeometry relative="1" as="geometry" />
        </mxCell>
        <mxCell id="EbcurFLhAqaCf-2c7TV3-61" value="Allow for &lt;br&gt;Multiple&amp;nbsp; Associates Degrees?" style="rhombus;whiteSpace=wrap;html=1;fillColor=#fff2cc;strokeColor=#d6b656;" parent="1" vertex="1">
          <mxGeometry x="-210" y="630" width="115" height="110" as="geometry" />
        </mxCell>
        <mxCell id="EbcurFLhAqaCf-2c7TV3-83" value="" style="edgeStyle=orthogonalEdgeStyle;rounded=0;orthogonalLoop=1;jettySize=auto;html=1;strokeColor=#000000;" parent="1" source="EbcurFLhAqaCf-2c7TV3-66" target="EbcurFLhAqaCf-2c7TV3-82" edge="1">
          <mxGeometry relative="1" as="geometry" />
        </mxCell>
        <mxCell id="EbcurFLhAqaCf-2c7TV3-66" value="Certified Ethical Hacker" style="ellipse;whiteSpace=wrap;html=1;fillColor=#e1d5e7;strokeColor=#9673a6;" parent="1" vertex="1">
          <mxGeometry x="-346.25" y="805" width="120" height="60" as="geometry" />
        </mxCell>
        <mxCell id="EbcurFLhAqaCf-2c7TV3-71" value="" style="edgeStyle=orthogonalEdgeStyle;rounded=0;orthogonalLoop=1;jettySize=auto;html=1;strokeColor=#000000;" parent="1" source="EbcurFLhAqaCf-2c7TV3-68" target="EbcurFLhAqaCf-2c7TV3-70" edge="1">
          <mxGeometry relative="1" as="geometry" />
        </mxCell>
        <mxCell id="EbcurFLhAqaCf-2c7TV3-68" value="HTB CPTS Learning Path" style="whiteSpace=wrap;html=1;fillColor=#f5f5f5;strokeColor=#666666;fontColor=#333333;" parent="1" vertex="1">
          <mxGeometry x="565" y="450" width="120" height="60" as="geometry" />
        </mxCell>
        <mxCell id="EbcurFLhAqaCf-2c7TV3-73" value="" style="edgeStyle=orthogonalEdgeStyle;rounded=0;orthogonalLoop=1;jettySize=auto;html=1;strokeColor=#000000;" parent="1" source="EbcurFLhAqaCf-2c7TV3-70" target="EbcurFLhAqaCf-2c7TV3-72" edge="1">
          <mxGeometry relative="1" as="geometry" />
        </mxCell>
        <mxCell id="EbcurFLhAqaCf-2c7TV3-70" value="HTB CPTS Exam" style="whiteSpace=wrap;html=1;fillColor=#f5f5f5;strokeColor=#666666;fontColor=#333333;" parent="1" vertex="1">
          <mxGeometry x="765" y="450" width="120" height="60" as="geometry" />
        </mxCell>
        <mxCell id="EbcurFLhAqaCf-2c7TV3-74" value="No" style="edgeStyle=orthogonalEdgeStyle;rounded=0;orthogonalLoop=1;jettySize=auto;html=1;exitX=0;exitY=0.5;exitDx=0;exitDy=0;entryX=0;entryY=1;entryDx=0;entryDy=0;strokeColor=#B20000;fillColor=#e51400;" parent="1" source="EbcurFLhAqaCf-2c7TV3-72" target="EbcurFLhAqaCf-2c7TV3-70" edge="1">
          <mxGeometry relative="1" as="geometry" />
        </mxCell>
        <mxCell id="EbcurFLhAqaCf-2c7TV3-87" value="Yes" style="edgeStyle=orthogonalEdgeStyle;rounded=0;orthogonalLoop=1;jettySize=auto;html=1;strokeColor=#80FF00;" parent="1" source="EbcurFLhAqaCf-2c7TV3-72" target="EbcurFLhAqaCf-2c7TV3-86" edge="1">
          <mxGeometry relative="1" as="geometry" />
        </mxCell>
        <mxCell id="EbcurFLhAqaCf-2c7TV3-72" value="Pass?" style="rhombus;whiteSpace=wrap;html=1;fillColor=#fff2cc;strokeColor=#d6b656;" parent="1" vertex="1">
          <mxGeometry x="785" y="580" width="80" height="80" as="geometry" />
        </mxCell>
        <mxCell id="EbcurFLhAqaCf-2c7TV3-79" value="Yes" style="edgeStyle=orthogonalEdgeStyle;rounded=0;orthogonalLoop=1;jettySize=auto;html=1;exitX=0;exitY=0.5;exitDx=0;exitDy=0;entryX=1;entryY=0.5;entryDx=0;entryDy=0;strokeColor=#80FF00;" parent="1" source="EbcurFLhAqaCf-2c7TV3-77" target="EbcurFLhAqaCf-2c7TV3-66" edge="1">
          <mxGeometry relative="1" as="geometry">
            <Array as="points">
              <mxPoint x="100" y="530" />
              <mxPoint x="100" y="835" />
            </Array>
          </mxGeometry>
        </mxCell>
        <mxCell id="EbcurFLhAqaCf-2c7TV3-81" value="No" style="edgeStyle=orthogonalEdgeStyle;rounded=0;orthogonalLoop=1;jettySize=auto;html=1;strokeColor=#B20000;fillColor=#e51400;" parent="1" source="EbcurFLhAqaCf-2c7TV3-77" target="EbcurFLhAqaCf-2c7TV3-80" edge="1">
          <mxGeometry relative="1" as="geometry" />
        </mxCell>
        <mxCell id="EbcurFLhAqaCf-2c7TV3-77" value="Two Years&lt;br&gt;&amp;nbsp;of IT&lt;br&gt;&amp;nbsp;Experience&lt;br&gt;?" style="rhombus;whiteSpace=wrap;html=1;fillColor=#fff2cc;strokeColor=#d6b656;" parent="1" vertex="1">
          <mxGeometry x="415" y="480" width="105" height="100" as="geometry" />
        </mxCell>
        <mxCell id="EbcurFLhAqaCf-2c7TV3-97" value="" style="edgeStyle=orthogonalEdgeStyle;rounded=0;orthogonalLoop=1;jettySize=auto;html=1;strokeColor=#000000;" parent="1" source="EbcurFLhAqaCf-2c7TV3-80" target="EbcurFLhAqaCf-2c7TV3-96" edge="1">
          <mxGeometry relative="1" as="geometry" />
        </mxCell>
        <mxCell id="EbcurFLhAqaCf-2c7TV3-80" value="TCM Practical Network Penetration Tester Certification" style="ellipse;whiteSpace=wrap;html=1;fillColor=#e1d5e7;strokeColor=#9673a6;" parent="1" vertex="1">
          <mxGeometry x="272.5" y="630" width="147.5" height="70" as="geometry" />
        </mxCell>
        <mxCell id="EbcurFLhAqaCf-2c7TV3-85" value="" style="edgeStyle=orthogonalEdgeStyle;rounded=0;orthogonalLoop=1;jettySize=auto;html=1;strokeColor=#000000;" parent="1" source="EbcurFLhAqaCf-2c7TV3-82" target="EbcurFLhAqaCf-2c7TV3-84" edge="1">
          <mxGeometry relative="1" as="geometry" />
        </mxCell>
        <mxCell id="EbcurFLhAqaCf-2c7TV3-82" value="EC-Council Training Course" style="whiteSpace=wrap;html=1;fillColor=#f5f5f5;strokeColor=#666666;fontColor=#333333;" parent="1" vertex="1">
          <mxGeometry x="-290" y="960" width="120" height="60" as="geometry" />
        </mxCell>
        <mxCell id="EbcurFLhAqaCf-2c7TV3-90" value="" style="edgeStyle=orthogonalEdgeStyle;rounded=0;orthogonalLoop=1;jettySize=auto;html=1;strokeColor=#000000;" parent="1" source="EbcurFLhAqaCf-2c7TV3-84" target="EbcurFLhAqaCf-2c7TV3-89" edge="1">
          <mxGeometry relative="1" as="geometry" />
        </mxCell>
        <mxCell id="EbcurFLhAqaCf-2c7TV3-84" value="CEH Exam" style="whiteSpace=wrap;html=1;fillColor=#f5f5f5;strokeColor=#666666;fontColor=#333333;" parent="1" vertex="1">
          <mxGeometry x="-490" y="960" width="120" height="60" as="geometry" />
        </mxCell>
        <mxCell id="EbcurFLhAqaCf-2c7TV3-88" style="edgeStyle=orthogonalEdgeStyle;rounded=0;orthogonalLoop=1;jettySize=auto;html=1;exitX=0;exitY=0.5;exitDx=0;exitDy=0;entryX=1;entryY=0.5;entryDx=0;entryDy=0;strokeColor=#000000;" parent="1" source="EbcurFLhAqaCf-2c7TV3-86" target="EbcurFLhAqaCf-2c7TV3-77" edge="1">
          <mxGeometry relative="1" as="geometry" />
        </mxCell>
        <mxCell id="EbcurFLhAqaCf-2c7TV3-86" value="CPTS Certification" style="ellipse;whiteSpace=wrap;html=1;fillColor=#d5e8d4;strokeColor=#82b366;" parent="1" vertex="1">
          <mxGeometry x="765" y="710" width="120" height="60" as="geometry" />
        </mxCell>
        <mxCell id="EbcurFLhAqaCf-2c7TV3-91" value="No" style="edgeStyle=orthogonalEdgeStyle;rounded=0;orthogonalLoop=1;jettySize=auto;html=1;exitX=0.5;exitY=0;exitDx=0;exitDy=0;entryX=0.5;entryY=0;entryDx=0;entryDy=0;strokeColor=#B20000;fillColor=#e51400;" parent="1" source="EbcurFLhAqaCf-2c7TV3-89" target="EbcurFLhAqaCf-2c7TV3-84" edge="1">
          <mxGeometry relative="1" as="geometry" />
        </mxCell>
        <mxCell id="EbcurFLhAqaCf-2c7TV3-94" value="Yes" style="edgeStyle=orthogonalEdgeStyle;rounded=0;orthogonalLoop=1;jettySize=auto;html=1;strokeColor=#80FF00;entryX=0;entryY=0.5;entryDx=0;entryDy=0;" parent="1" source="EbcurFLhAqaCf-2c7TV3-89" target="EbcurFLhAqaCf-2c7TV3-93" edge="1">
          <mxGeometry x="-0.0103" relative="1" as="geometry">
            <Array as="points">
              <mxPoint x="-630" y="1120" />
            </Array>
            <mxPoint as="offset" />
            <mxPoint x="-510" y="1190" as="targetPoint" />
          </mxGeometry>
        </mxCell>
        <mxCell id="EbcurFLhAqaCf-2c7TV3-89" value="Pass?" style="rhombus;whiteSpace=wrap;html=1;fillColor=#fff2cc;strokeColor=#d6b656;" parent="1" vertex="1">
          <mxGeometry x="-670" y="950" width="80" height="80" as="geometry" />
        </mxCell>
        <mxCell id="Rvb3EEz3BE0fVyhVUVa4-24" value="" style="edgeStyle=orthogonalEdgeStyle;rounded=0;orthogonalLoop=1;jettySize=auto;html=1;strokeColor=#000000;" parent="1" source="EbcurFLhAqaCf-2c7TV3-93" target="Rvb3EEz3BE0fVyhVUVa4-23" edge="1">
          <mxGeometry relative="1" as="geometry" />
        </mxCell>
        <mxCell id="EbcurFLhAqaCf-2c7TV3-93" value="CEH Certification" style="ellipse;whiteSpace=wrap;html=1;fillColor=#d5e8d4;strokeColor=#82b366;" parent="1" vertex="1">
          <mxGeometry x="-590" y="1090" width="120" height="60" as="geometry" />
        </mxCell>
        <mxCell id="EbcurFLhAqaCf-2c7TV3-99" value="" style="edgeStyle=orthogonalEdgeStyle;rounded=0;orthogonalLoop=1;jettySize=auto;html=1;strokeColor=#000000;" parent="1" source="EbcurFLhAqaCf-2c7TV3-96" target="EbcurFLhAqaCf-2c7TV3-98" edge="1">
          <mxGeometry relative="1" as="geometry" />
        </mxCell>
        <mxCell id="EbcurFLhAqaCf-2c7TV3-96" value="TCM PNPT Course Work" style="whiteSpace=wrap;html=1;fillColor=#f5f5f5;strokeColor=#666666;fontColor=#333333;" parent="1" vertex="1">
          <mxGeometry x="450" y="635" width="120" height="60" as="geometry" />
        </mxCell>
        <mxCell id="EbcurFLhAqaCf-2c7TV3-101" value="" style="edgeStyle=orthogonalEdgeStyle;rounded=0;orthogonalLoop=1;jettySize=auto;html=1;strokeColor=#000000;" parent="1" source="EbcurFLhAqaCf-2c7TV3-98" target="EbcurFLhAqaCf-2c7TV3-100" edge="1">
          <mxGeometry relative="1" as="geometry" />
        </mxCell>
        <mxCell id="EbcurFLhAqaCf-2c7TV3-98" value="PNPT Exam" style="whiteSpace=wrap;html=1;fillColor=#f5f5f5;strokeColor=#666666;fontColor=#333333;" parent="1" vertex="1">
          <mxGeometry x="330" y="800" width="120" height="60" as="geometry" />
        </mxCell>
        <mxCell id="EbcurFLhAqaCf-2c7TV3-102" value="No" style="edgeStyle=orthogonalEdgeStyle;rounded=0;orthogonalLoop=1;jettySize=auto;html=1;exitX=0.5;exitY=0;exitDx=0;exitDy=0;entryX=0.75;entryY=0;entryDx=0;entryDy=0;strokeColor=#B20000;fillColor=#e51400;" parent="1" source="EbcurFLhAqaCf-2c7TV3-100" target="EbcurFLhAqaCf-2c7TV3-98" edge="1">
          <mxGeometry relative="1" as="geometry" />
        </mxCell>
        <mxCell id="EbcurFLhAqaCf-2c7TV3-104" value="Yes" style="edgeStyle=orthogonalEdgeStyle;rounded=0;orthogonalLoop=1;jettySize=auto;html=1;strokeColor=#80FF00;entryX=1;entryY=0.5;entryDx=0;entryDy=0;" parent="1" source="EbcurFLhAqaCf-2c7TV3-100" target="EbcurFLhAqaCf-2c7TV3-103" edge="1">
          <mxGeometry relative="1" as="geometry" />
        </mxCell>
        <mxCell id="EbcurFLhAqaCf-2c7TV3-100" value="Pass?" style="rhombus;whiteSpace=wrap;html=1;fillColor=#fff2cc;strokeColor=#d6b656;" parent="1" vertex="1">
          <mxGeometry x="535" y="790" width="80" height="80" as="geometry" />
        </mxCell>
        <mxCell id="Rvb3EEz3BE0fVyhVUVa4-21" value="" style="edgeStyle=orthogonalEdgeStyle;rounded=0;orthogonalLoop=1;jettySize=auto;html=1;strokeColor=#000000;" parent="1" source="EbcurFLhAqaCf-2c7TV3-103" target="Rvb3EEz3BE0fVyhVUVa4-20" edge="1">
          <mxGeometry relative="1" as="geometry" />
        </mxCell>
        <mxCell id="EbcurFLhAqaCf-2c7TV3-103" value="PNPT Certification" style="ellipse;whiteSpace=wrap;html=1;fillColor=#d5e8d4;strokeColor=#82b366;" parent="1" vertex="1">
          <mxGeometry x="830" y="850" width="120" height="60" as="geometry" />
        </mxCell>
        <mxCell id="EbcurFLhAqaCf-2c7TV3-147" value="Yes" style="edgeStyle=orthogonalEdgeStyle;rounded=0;orthogonalLoop=1;jettySize=auto;html=1;strokeColor=#80FF00;" parent="1" source="EbcurFLhAqaCf-2c7TV3-143" target="EbcurFLhAqaCf-2c7TV3-146" edge="1">
          <mxGeometry relative="1" as="geometry" />
        </mxCell>
        <mxCell id="EbcurFLhAqaCf-2c7TV3-158" value="No" style="edgeStyle=orthogonalEdgeStyle;rounded=0;orthogonalLoop=1;jettySize=auto;html=1;strokeColor=#B20000;fillColor=#e51400;" parent="1" source="EbcurFLhAqaCf-2c7TV3-143" target="EbcurFLhAqaCf-2c7TV3-157" edge="1">
          <mxGeometry relative="1" as="geometry" />
        </mxCell>
        <mxCell id="EbcurFLhAqaCf-2c7TV3-143" value="Four Years &lt;br&gt;of experience&lt;br&gt;?" style="rhombus;whiteSpace=wrap;html=1;fillColor=#fff2cc;strokeColor=#d6b656;" parent="1" vertex="1">
          <mxGeometry x="1190" y="1140" width="105" height="95" as="geometry" />
        </mxCell>
        <mxCell id="EbcurFLhAqaCf-2c7TV3-149" value="" style="edgeStyle=orthogonalEdgeStyle;rounded=0;orthogonalLoop=1;jettySize=auto;html=1;strokeColor=#000000;" parent="1" source="EbcurFLhAqaCf-2c7TV3-146" target="EbcurFLhAqaCf-2c7TV3-148" edge="1">
          <mxGeometry relative="1" as="geometry" />
        </mxCell>
        <mxCell id="EbcurFLhAqaCf-2c7TV3-146" value="CompTIA&lt;br&gt;PenTest+" style="ellipse;whiteSpace=wrap;html=1;fillColor=#e1d5e7;strokeColor=#9673a6;" parent="1" vertex="1">
          <mxGeometry x="1182.5" y="1270" width="120" height="60" as="geometry" />
        </mxCell>
        <mxCell id="EbcurFLhAqaCf-2c7TV3-151" value="" style="edgeStyle=orthogonalEdgeStyle;rounded=0;orthogonalLoop=1;jettySize=auto;html=1;strokeColor=#000000;" parent="1" source="EbcurFLhAqaCf-2c7TV3-148" target="EbcurFLhAqaCf-2c7TV3-150" edge="1">
          <mxGeometry relative="1" as="geometry" />
        </mxCell>
        <mxCell id="EbcurFLhAqaCf-2c7TV3-148" value="PenTest+&lt;br&gt;Course Work" style="whiteSpace=wrap;html=1;fillColor=#f5f5f5;strokeColor=#666666;fontColor=#333333;" parent="1" vertex="1">
          <mxGeometry x="1020" y="1200" width="120" height="60" as="geometry" />
        </mxCell>
        <mxCell id="EbcurFLhAqaCf-2c7TV3-153" value="" style="edgeStyle=orthogonalEdgeStyle;rounded=0;orthogonalLoop=1;jettySize=auto;html=1;strokeColor=#000000;" parent="1" source="EbcurFLhAqaCf-2c7TV3-150" target="EbcurFLhAqaCf-2c7TV3-152" edge="1">
          <mxGeometry relative="1" as="geometry" />
        </mxCell>
        <mxCell id="EbcurFLhAqaCf-2c7TV3-150" value="PenTest+&lt;br&gt;Exam" style="whiteSpace=wrap;html=1;fillColor=#f5f5f5;strokeColor=#666666;fontColor=#333333;" parent="1" vertex="1">
          <mxGeometry x="755" y="1200" width="120" height="60" as="geometry" />
        </mxCell>
        <mxCell id="EbcurFLhAqaCf-2c7TV3-154" value="No" style="edgeStyle=orthogonalEdgeStyle;rounded=0;orthogonalLoop=1;jettySize=auto;html=1;exitX=0.5;exitY=1;exitDx=0;exitDy=0;entryX=0.5;entryY=1;entryDx=0;entryDy=0;strokeColor=#B20000;fillColor=#e51400;" parent="1" source="EbcurFLhAqaCf-2c7TV3-152" target="EbcurFLhAqaCf-2c7TV3-150" edge="1">
          <mxGeometry relative="1" as="geometry">
            <Array as="points">
              <mxPoint x="645" y="1320" />
              <mxPoint x="815" y="1320" />
            </Array>
          </mxGeometry>
        </mxCell>
        <mxCell id="EbcurFLhAqaCf-2c7TV3-156" value="Yes" style="edgeStyle=orthogonalEdgeStyle;rounded=0;orthogonalLoop=1;jettySize=auto;html=1;strokeColor=#80FF00;" parent="1" source="EbcurFLhAqaCf-2c7TV3-152" target="EbcurFLhAqaCf-2c7TV3-155" edge="1">
          <mxGeometry relative="1" as="geometry" />
        </mxCell>
        <mxCell id="EbcurFLhAqaCf-2c7TV3-152" value="Pass?" style="rhombus;whiteSpace=wrap;html=1;fillColor=#fff2cc;strokeColor=#d6b656;" parent="1" vertex="1">
          <mxGeometry x="605" y="1190" width="80" height="80" as="geometry" />
        </mxCell>
        <mxCell id="aTY9Xm_yAR5NdKrloG2i-12" value="" style="edgeStyle=orthogonalEdgeStyle;rounded=0;orthogonalLoop=1;jettySize=auto;html=1;strokeColor=#000000;entryX=0.5;entryY=0;entryDx=0;entryDy=0;" parent="1" source="EbcurFLhAqaCf-2c7TV3-155" target="aTY9Xm_yAR5NdKrloG2i-11" edge="1">
          <mxGeometry relative="1" as="geometry" />
        </mxCell>
        <mxCell id="EbcurFLhAqaCf-2c7TV3-155" value="PenTest+&lt;br&gt;Certification" style="ellipse;whiteSpace=wrap;html=1;fillColor=#d5e8d4;strokeColor=#82b366;" parent="1" vertex="1">
          <mxGeometry x="400" y="1200" width="120" height="60" as="geometry" />
        </mxCell>
        <mxCell id="EbcurFLhAqaCf-2c7TV3-160" value="" style="edgeStyle=orthogonalEdgeStyle;rounded=0;orthogonalLoop=1;jettySize=auto;html=1;strokeColor=#000000;" parent="1" source="EbcurFLhAqaCf-2c7TV3-157" target="EbcurFLhAqaCf-2c7TV3-159" edge="1">
          <mxGeometry relative="1" as="geometry" />
        </mxCell>
        <mxCell id="EbcurFLhAqaCf-2c7TV3-157" value="E-Learn Junior Penetration Tester Certification" style="ellipse;whiteSpace=wrap;html=1;fillColor=#e1d5e7;strokeColor=#9673a6;" parent="1" vertex="1">
          <mxGeometry x="100" y="1260" width="120" height="60" as="geometry" />
        </mxCell>
        <mxCell id="quEuBbzcooWKiQeAtJUy-2" style="edgeStyle=orthogonalEdgeStyle;rounded=0;orthogonalLoop=1;jettySize=auto;html=1;exitX=0;exitY=0.5;exitDx=0;exitDy=0;entryX=1;entryY=0.5;entryDx=0;entryDy=0;" edge="1" parent="1" source="EbcurFLhAqaCf-2c7TV3-159" target="EbcurFLhAqaCf-2c7TV3-161">
          <mxGeometry relative="1" as="geometry" />
        </mxCell>
        <mxCell id="EbcurFLhAqaCf-2c7TV3-159" value="eJPT Exam" style="whiteSpace=wrap;html=1;fillColor=#f5f5f5;strokeColor=#666666;fontColor=#333333;" parent="1" vertex="1">
          <mxGeometry x="-340" y="1260" width="120" height="60" as="geometry" />
        </mxCell>
        <mxCell id="EbcurFLhAqaCf-2c7TV3-164" value="No" style="edgeStyle=orthogonalEdgeStyle;rounded=0;orthogonalLoop=1;jettySize=auto;html=1;strokeColor=#B20000;fillColor=#e51400;exitX=0.5;exitY=0;exitDx=0;exitDy=0;entryX=0;entryY=0.5;entryDx=0;entryDy=0;" parent="1" source="EbcurFLhAqaCf-2c7TV3-161" target="EbcurFLhAqaCf-2c7TV3-163" edge="1">
          <mxGeometry relative="1" as="geometry" />
        </mxCell>
        <mxCell id="EbcurFLhAqaCf-2c7TV3-167" value="Yes" style="edgeStyle=orthogonalEdgeStyle;rounded=0;orthogonalLoop=1;jettySize=auto;html=1;strokeColor=#80FF00;" parent="1" source="EbcurFLhAqaCf-2c7TV3-161" target="EbcurFLhAqaCf-2c7TV3-166" edge="1">
          <mxGeometry relative="1" as="geometry" />
        </mxCell>
        <mxCell id="EbcurFLhAqaCf-2c7TV3-161" value="Pass?" style="rhombus;whiteSpace=wrap;html=1;fillColor=#fff2cc;strokeColor=#d6b656;" parent="1" vertex="1">
          <mxGeometry x="-670" y="1210" width="80" height="80" as="geometry" />
        </mxCell>
        <mxCell id="Rvb3EEz3BE0fVyhVUVa4-51" style="edgeStyle=orthogonalEdgeStyle;rounded=0;orthogonalLoop=1;jettySize=auto;html=1;exitX=0.5;exitY=1;exitDx=0;exitDy=0;strokeColor=#000000;" parent="1" source="EbcurFLhAqaCf-2c7TV3-163" target="EbcurFLhAqaCf-2c7TV3-159" edge="1">
          <mxGeometry relative="1" as="geometry" />
        </mxCell>
        <mxCell id="EbcurFLhAqaCf-2c7TV3-163" value="eJPT Course Work" style="whiteSpace=wrap;html=1;fillColor=#f5f5f5;strokeColor=#666666;fontColor=#333333;" parent="1" vertex="1">
          <mxGeometry x="-340" y="1140" width="120" height="60" as="geometry" />
        </mxCell>
        <mxCell id="quEuBbzcooWKiQeAtJUy-4" style="edgeStyle=orthogonalEdgeStyle;rounded=0;orthogonalLoop=1;jettySize=auto;html=1;exitX=1;exitY=0.5;exitDx=0;exitDy=0;entryX=0;entryY=0.5;entryDx=0;entryDy=0;" edge="1" parent="1" source="EbcurFLhAqaCf-2c7TV3-166" target="Rvb3EEz3BE0fVyhVUVa4-52">
          <mxGeometry relative="1" as="geometry" />
        </mxCell>
        <mxCell id="EbcurFLhAqaCf-2c7TV3-166" value="eJPT Certification" style="ellipse;whiteSpace=wrap;html=1;fillColor=#d5e8d4;strokeColor=#82b366;" parent="1" vertex="1">
          <mxGeometry x="-688.75" y="1363.75" width="120" height="60" as="geometry" />
        </mxCell>
        <mxCell id="EbcurFLhAqaCf-2c7TV3-174" value="" style="edgeStyle=orthogonalEdgeStyle;rounded=0;orthogonalLoop=1;jettySize=auto;html=1;strokeColor=#000000;exitX=1;exitY=0.5;exitDx=0;exitDy=0;entryX=0;entryY=0.5;entryDx=0;entryDy=0;" parent="1" source="aTY9Xm_yAR5NdKrloG2i-15" target="aTY9Xm_yAR5NdKrloG2i-16" edge="1">
          <mxGeometry relative="1" as="geometry">
            <mxPoint x="1355" y="1590" as="sourcePoint" />
            <mxPoint x="1415" y="1590" as="targetPoint" />
          </mxGeometry>
        </mxCell>
        <mxCell id="EbcurFLhAqaCf-2c7TV3-179" value="No" style="edgeStyle=orthogonalEdgeStyle;rounded=0;orthogonalLoop=1;jettySize=auto;html=1;exitX=1;exitY=0.5;exitDx=0;exitDy=0;entryX=0.5;entryY=1;entryDx=0;entryDy=0;strokeColor=#b85450;fillColor=#f8cecc;" parent="1" source="aTY9Xm_yAR5NdKrloG2i-19" target="aTY9Xm_yAR5NdKrloG2i-17" edge="1">
          <mxGeometry relative="1" as="geometry">
            <mxPoint x="1275" y="1720" as="sourcePoint" />
            <mxPoint x="1475" y="1710" as="targetPoint" />
          </mxGeometry>
        </mxCell>
        <mxCell id="EbcurFLhAqaCf-2c7TV3-195" value="" style="edgeStyle=orthogonalEdgeStyle;rounded=0;orthogonalLoop=1;jettySize=auto;html=1;strokeColor=#000000;exitX=0;exitY=0.5;exitDx=0;exitDy=0;" parent="1" source="EbcurFLhAqaCf-2c7TV3-191" target="EbcurFLhAqaCf-2c7TV3-194" edge="1">
          <mxGeometry relative="1" as="geometry">
            <Array as="points">
              <mxPoint x="1190" y="1550" />
            </Array>
          </mxGeometry>
        </mxCell>
        <mxCell id="EbcurFLhAqaCf-2c7TV3-191" value="Offensive Security Certified Penetration Testesr" style="ellipse;whiteSpace=wrap;html=1;fillColor=#e1d5e7;strokeColor=#9673a6;" parent="1" vertex="1">
          <mxGeometry x="1210" y="1520" width="120" height="60" as="geometry" />
        </mxCell>
        <mxCell id="EbcurFLhAqaCf-2c7TV3-197" value="" style="edgeStyle=orthogonalEdgeStyle;rounded=0;orthogonalLoop=1;jettySize=auto;html=1;strokeColor=#000000;" parent="1" source="EbcurFLhAqaCf-2c7TV3-194" target="EbcurFLhAqaCf-2c7TV3-196" edge="1">
          <mxGeometry relative="1" as="geometry" />
        </mxCell>
        <mxCell id="EbcurFLhAqaCf-2c7TV3-194" value="OSCP Exam" style="whiteSpace=wrap;html=1;fillColor=#f5f5f5;strokeColor=#666666;fontColor=#333333;" parent="1" vertex="1">
          <mxGeometry x="1130" y="1620" width="120" height="60" as="geometry" />
        </mxCell>
        <mxCell id="EbcurFLhAqaCf-2c7TV3-200" value="No" style="edgeStyle=orthogonalEdgeStyle;rounded=0;orthogonalLoop=1;jettySize=auto;html=1;strokeColor=#B20000;fillColor=#e51400;" parent="1" source="EbcurFLhAqaCf-2c7TV3-196" target="EbcurFLhAqaCf-2c7TV3-199" edge="1">
          <mxGeometry relative="1" as="geometry" />
        </mxCell>
        <mxCell id="EbcurFLhAqaCf-2c7TV3-203" value="Yes" style="edgeStyle=orthogonalEdgeStyle;rounded=0;orthogonalLoop=1;jettySize=auto;html=1;strokeColor=#80FF00;exitX=1;exitY=0.5;exitDx=0;exitDy=0;" parent="1" source="EbcurFLhAqaCf-2c7TV3-196" target="EbcurFLhAqaCf-2c7TV3-202" edge="1">
          <mxGeometry relative="1" as="geometry" />
        </mxCell>
        <mxCell id="EbcurFLhAqaCf-2c7TV3-196" value="Pass?" style="rhombus;whiteSpace=wrap;html=1;fillColor=#fff2cc;strokeColor=#d6b656;" parent="1" vertex="1">
          <mxGeometry x="1370" y="1610" width="80" height="80" as="geometry" />
        </mxCell>
        <mxCell id="EbcurFLhAqaCf-2c7TV3-201" style="edgeStyle=orthogonalEdgeStyle;rounded=0;orthogonalLoop=1;jettySize=auto;html=1;exitX=0;exitY=0.5;exitDx=0;exitDy=0;entryX=0.5;entryY=1;entryDx=0;entryDy=0;strokeColor=#000000;" parent="1" source="EbcurFLhAqaCf-2c7TV3-199" target="EbcurFLhAqaCf-2c7TV3-194" edge="1">
          <mxGeometry relative="1" as="geometry" />
        </mxCell>
        <mxCell id="EbcurFLhAqaCf-2c7TV3-199" value="OSCP Exam Coursework" style="whiteSpace=wrap;html=1;fillColor=#f5f5f5;strokeColor=#666666;fontColor=#333333;" parent="1" vertex="1">
          <mxGeometry x="1350" y="1750" width="120" height="60" as="geometry" />
        </mxCell>
        <mxCell id="quEuBbzcooWKiQeAtJUy-7" style="edgeStyle=orthogonalEdgeStyle;rounded=0;orthogonalLoop=1;jettySize=auto;html=1;exitX=0.5;exitY=1;exitDx=0;exitDy=0;entryX=1;entryY=0.5;entryDx=0;entryDy=0;" edge="1" parent="1" source="EbcurFLhAqaCf-2c7TV3-202" target="EbcurFLhAqaCf-2c7TV3-215">
          <mxGeometry relative="1" as="geometry" />
        </mxCell>
        <mxCell id="EbcurFLhAqaCf-2c7TV3-202" value="OSCP Certification" style="ellipse;whiteSpace=wrap;html=1;fillColor=#d5e8d4;strokeColor=#82b366;" parent="1" vertex="1">
          <mxGeometry x="1500" y="1750" width="120" height="60" as="geometry" />
        </mxCell>
        <mxCell id="EbcurFLhAqaCf-2c7TV3-207" value="" style="edgeStyle=orthogonalEdgeStyle;rounded=0;orthogonalLoop=1;jettySize=auto;html=1;strokeColor=#000000;" parent="1" source="EbcurFLhAqaCf-2c7TV3-204" target="EbcurFLhAqaCf-2c7TV3-206" edge="1">
          <mxGeometry relative="1" as="geometry" />
        </mxCell>
        <mxCell id="EbcurFLhAqaCf-2c7TV3-204" value="Offensive Security Web Application Security course and Certification" style="ellipse;whiteSpace=wrap;html=1;fillColor=#e1d5e7;strokeColor=#9673a6;" parent="1" vertex="1">
          <mxGeometry x="1110" y="1380" width="180" height="100" as="geometry" />
        </mxCell>
        <mxCell id="EbcurFLhAqaCf-2c7TV3-209" value="" style="edgeStyle=orthogonalEdgeStyle;rounded=0;orthogonalLoop=1;jettySize=auto;html=1;strokeColor=#000000;" parent="1" source="EbcurFLhAqaCf-2c7TV3-206" target="EbcurFLhAqaCf-2c7TV3-208" edge="1">
          <mxGeometry relative="1" as="geometry" />
        </mxCell>
        <mxCell id="EbcurFLhAqaCf-2c7TV3-206" value="OSWE&lt;br&gt;Course Work" style="whiteSpace=wrap;html=1;fillColor=#f5f5f5;strokeColor=#666666;fontColor=#333333;" parent="1" vertex="1">
          <mxGeometry x="1350" y="1400" width="120" height="60" as="geometry" />
        </mxCell>
        <mxCell id="EbcurFLhAqaCf-2c7TV3-211" value="" style="edgeStyle=orthogonalEdgeStyle;rounded=0;orthogonalLoop=1;jettySize=auto;html=1;strokeColor=#000000;" parent="1" source="EbcurFLhAqaCf-2c7TV3-208" target="EbcurFLhAqaCf-2c7TV3-210" edge="1">
          <mxGeometry relative="1" as="geometry" />
        </mxCell>
        <mxCell id="EbcurFLhAqaCf-2c7TV3-208" value="OSWE&lt;br&gt;Exam" style="whiteSpace=wrap;html=1;fillColor=#f5f5f5;strokeColor=#666666;fontColor=#333333;" parent="1" vertex="1">
          <mxGeometry x="1520" y="1400" width="120" height="60" as="geometry" />
        </mxCell>
        <mxCell id="EbcurFLhAqaCf-2c7TV3-212" value="No" style="edgeStyle=orthogonalEdgeStyle;rounded=0;orthogonalLoop=1;jettySize=auto;html=1;exitX=1;exitY=0.5;exitDx=0;exitDy=0;entryX=0.5;entryY=0;entryDx=0;entryDy=0;strokeColor=#B20000;fillColor=#e51400;" parent="1" source="EbcurFLhAqaCf-2c7TV3-210" target="EbcurFLhAqaCf-2c7TV3-208" edge="1">
          <mxGeometry relative="1" as="geometry">
            <Array as="points">
              <mxPoint x="1660" y="1550" />
              <mxPoint x="1660" y="1380" />
              <mxPoint x="1580" y="1380" />
            </Array>
          </mxGeometry>
        </mxCell>
        <mxCell id="EbcurFLhAqaCf-2c7TV3-214" value="Yes" style="edgeStyle=orthogonalEdgeStyle;rounded=0;orthogonalLoop=1;jettySize=auto;html=1;strokeColor=#80FF00;fillColor=#d5e8d4;" parent="1" source="EbcurFLhAqaCf-2c7TV3-210" target="EbcurFLhAqaCf-2c7TV3-213" edge="1">
          <mxGeometry relative="1" as="geometry" />
        </mxCell>
        <mxCell id="EbcurFLhAqaCf-2c7TV3-210" value="Pass?" style="rhombus;whiteSpace=wrap;html=1;fillColor=#fff2cc;strokeColor=#d6b656;" parent="1" vertex="1">
          <mxGeometry x="1540" y="1510" width="80" height="80" as="geometry" />
        </mxCell>
        <mxCell id="quEuBbzcooWKiQeAtJUy-6" style="edgeStyle=orthogonalEdgeStyle;rounded=0;orthogonalLoop=1;jettySize=auto;html=1;exitX=0;exitY=0.5;exitDx=0;exitDy=0;entryX=1;entryY=0.5;entryDx=0;entryDy=0;" edge="1" parent="1" source="EbcurFLhAqaCf-2c7TV3-213" target="EbcurFLhAqaCf-2c7TV3-191">
          <mxGeometry relative="1" as="geometry" />
        </mxCell>
        <mxCell id="EbcurFLhAqaCf-2c7TV3-213" value="OSWE Certification" style="ellipse;whiteSpace=wrap;html=1;fillColor=#d5e8d4;strokeColor=#82b366;" parent="1" vertex="1">
          <mxGeometry x="1380" y="1520" width="120" height="60" as="geometry" />
        </mxCell>
        <mxCell id="EbcurFLhAqaCf-2c7TV3-220" value="No" style="edgeStyle=orthogonalEdgeStyle;rounded=0;orthogonalLoop=1;jettySize=auto;html=1;strokeColor=#B20000;fillColor=#e51400;" parent="1" source="EbcurFLhAqaCf-2c7TV3-215" target="EbcurFLhAqaCf-2c7TV3-219" edge="1">
          <mxGeometry relative="1" as="geometry" />
        </mxCell>
        <mxCell id="EbcurFLhAqaCf-2c7TV3-222" value="Yes" style="edgeStyle=orthogonalEdgeStyle;rounded=0;orthogonalLoop=1;jettySize=auto;html=1;strokeColor=#80FF00;exitX=0.5;exitY=0;exitDx=0;exitDy=0;" parent="1" source="EbcurFLhAqaCf-2c7TV3-215" target="EbcurFLhAqaCf-2c7TV3-221" edge="1">
          <mxGeometry relative="1" as="geometry" />
        </mxCell>
        <mxCell id="EbcurFLhAqaCf-2c7TV3-215" value="Is Tuition Covered?" style="rhombus;whiteSpace=wrap;html=1;fillColor=#fff2cc;strokeColor=#d6b656;" parent="1" vertex="1">
          <mxGeometry x="145" y="2100" width="80" height="80" as="geometry" />
        </mxCell>
        <mxCell id="aTY9Xm_yAR5NdKrloG2i-24" value="" style="edgeStyle=orthogonalEdgeStyle;rounded=0;orthogonalLoop=1;jettySize=auto;html=1;strokeColor=#000000;" parent="1" source="EbcurFLhAqaCf-2c7TV3-219" target="aTY9Xm_yAR5NdKrloG2i-23" edge="1">
          <mxGeometry relative="1" as="geometry" />
        </mxCell>
        <mxCell id="EbcurFLhAqaCf-2c7TV3-219" value="E-Learn Web Application Penetration Tester eXtreme" style="ellipse;whiteSpace=wrap;html=1;fillColor=#e1d5e7;strokeColor=#9673a6;" parent="1" vertex="1">
          <mxGeometry x="-150" y="2105" width="157.5" height="70" as="geometry" />
        </mxCell>
        <mxCell id="EbcurFLhAqaCf-2c7TV3-224" value="No" style="edgeStyle=orthogonalEdgeStyle;rounded=0;orthogonalLoop=1;jettySize=auto;html=1;strokeColor=#B20000;fillColor=#e51400;" parent="1" source="EbcurFLhAqaCf-2c7TV3-221" target="EbcurFLhAqaCf-2c7TV3-223" edge="1">
          <mxGeometry relative="1" as="geometry" />
        </mxCell>
        <mxCell id="EbcurFLhAqaCf-2c7TV3-226" value="Yes" style="edgeStyle=orthogonalEdgeStyle;rounded=0;orthogonalLoop=1;jettySize=auto;html=1;strokeColor=#80FF00;" parent="1" source="EbcurFLhAqaCf-2c7TV3-221" target="EbcurFLhAqaCf-2c7TV3-225" edge="1">
          <mxGeometry relative="1" as="geometry" />
        </mxCell>
        <mxCell id="EbcurFLhAqaCf-2c7TV3-221" value="Undergraduate Degree Completed?" style="rhombus;whiteSpace=wrap;html=1;fillColor=#fff2cc;strokeColor=#d6b656;" parent="1" vertex="1">
          <mxGeometry x="-346.25" y="1900" width="132.5" height="120" as="geometry" />
        </mxCell>
        <mxCell id="EbcurFLhAqaCf-2c7TV3-223" value="Undergraduate Degree" style="ellipse;whiteSpace=wrap;html=1;fillColor=#d5e8d4;strokeColor=#82b366;" parent="1" vertex="1">
          <mxGeometry x="-552.5" y="1930" width="120" height="60" as="geometry" />
        </mxCell>
        <mxCell id="EbcurFLhAqaCf-2c7TV3-225" value="Masters" style="ellipse;whiteSpace=wrap;html=1;fillColor=#d5e8d4;strokeColor=#82b366;" parent="1" vertex="1">
          <mxGeometry x="-340" y="1730" width="120" height="60" as="geometry" />
        </mxCell>
        <mxCell id="Rvb3EEz3BE0fVyhVUVa4-2" value="Bachelors in Computer&amp;nbsp;&lt;br&gt;Engineering" style="ellipse;whiteSpace=wrap;html=1;fillColor=#d5e8d4;strokeColor=#82b366;" parent="1" vertex="1">
          <mxGeometry x="-40" y="432.5" width="120" height="60" as="geometry" />
        </mxCell>
        <mxCell id="Rvb3EEz3BE0fVyhVUVa4-6" value="Yes" style="edgeStyle=orthogonalEdgeStyle;rounded=0;orthogonalLoop=1;jettySize=auto;html=1;exitX=1;exitY=0.5;exitDx=0;exitDy=0;entryX=0.5;entryY=0;entryDx=0;entryDy=0;strokeColor=#80FF00;" parent="1" source="Rvb3EEz3BE0fVyhVUVa4-4" target="Rvb3EEz3BE0fVyhVUVa4-2" edge="1">
          <mxGeometry relative="1" as="geometry" />
        </mxCell>
        <mxCell id="Rvb3EEz3BE0fVyhVUVa4-17" value="No" style="edgeStyle=orthogonalEdgeStyle;rounded=0;orthogonalLoop=1;jettySize=auto;html=1;exitX=0.5;exitY=0;exitDx=0;exitDy=0;entryX=0;entryY=0.5;entryDx=0;entryDy=0;strokeColor=#B20000;fillColor=#e51400;" parent="1" source="Rvb3EEz3BE0fVyhVUVa4-4" target="EbcurFLhAqaCf-2c7TV3-49" edge="1">
          <mxGeometry relative="1" as="geometry" />
        </mxCell>
        <mxCell id="Rvb3EEz3BE0fVyhVUVa4-4" value="Completed an Engineering or Physics Degree?" style="rhombus;whiteSpace=wrap;html=1;fillColor=#fff2cc;strokeColor=#d6b656;" parent="1" vertex="1">
          <mxGeometry x="-410" y="311.25" width="132.5" height="112.5" as="geometry" />
        </mxCell>
        <mxCell id="Rvb3EEz3BE0fVyhVUVa4-12" style="edgeStyle=orthogonalEdgeStyle;rounded=0;orthogonalLoop=1;jettySize=auto;html=1;exitX=1;exitY=0.5;exitDx=0;exitDy=0;entryX=0.5;entryY=0;entryDx=0;entryDy=0;strokeColor=#000000;" parent="1" source="Rvb3EEz3BE0fVyhVUVa4-8" target="EbcurFLhAqaCf-2c7TV3-5" edge="1">
          <mxGeometry relative="1" as="geometry" />
        </mxCell>
        <mxCell id="Rvb3EEz3BE0fVyhVUVa4-8" value="Certifications" style="shape=hexagon;perimeter=hexagonPerimeter2;whiteSpace=wrap;html=1;fixedSize=1;fillColor=#e1d5e7;strokeColor=#9673a6;" parent="1" vertex="1">
          <mxGeometry x="565" y="40" width="120" height="80" as="geometry" />
        </mxCell>
        <mxCell id="Rvb3EEz3BE0fVyhVUVa4-10" value="College" style="shape=hexagon;perimeter=hexagonPerimeter2;whiteSpace=wrap;html=1;fixedSize=1;fillColor=#dae8fc;strokeColor=#6c8ebf;" parent="1" vertex="1">
          <mxGeometry x="160" y="40" width="120" height="80" as="geometry" />
        </mxCell>
        <mxCell id="Rvb3EEz3BE0fVyhVUVa4-15" value="No" style="edgeStyle=orthogonalEdgeStyle;rounded=0;orthogonalLoop=1;jettySize=auto;html=1;exitX=0.5;exitY=1;exitDx=0;exitDy=0;entryX=0.5;entryY=0;entryDx=0;entryDy=0;strokeColor=#B20000;fillColor=#e51400;" parent="1" source="Rvb3EEz3BE0fVyhVUVa4-13" target="EbcurFLhAqaCf-2c7TV3-66" edge="1">
          <mxGeometry relative="1" as="geometry">
            <Array as="points">
              <mxPoint x="9" y="750" />
              <mxPoint x="-286" y="750" />
            </Array>
          </mxGeometry>
        </mxCell>
        <mxCell id="Rvb3EEz3BE0fVyhVUVa4-16" value="Yes" style="edgeStyle=orthogonalEdgeStyle;rounded=0;orthogonalLoop=1;jettySize=auto;html=1;exitX=0.5;exitY=0;exitDx=0;exitDy=0;entryX=0.5;entryY=1;entryDx=0;entryDy=0;strokeColor=#80FF00;" parent="1" source="Rvb3EEz3BE0fVyhVUVa4-13" target="Rvb3EEz3BE0fVyhVUVa4-2" edge="1">
          <mxGeometry relative="1" as="geometry">
            <Array as="points">
              <mxPoint x="20" y="623" />
            </Array>
          </mxGeometry>
        </mxCell>
        <mxCell id="Rvb3EEz3BE0fVyhVUVa4-13" value="Allow For&lt;br&gt;&amp;nbsp;Multiple Degrees&lt;br&gt;?" style="rhombus;whiteSpace=wrap;html=1;fillColor=#fff2cc;strokeColor=#d6b656;" parent="1" vertex="1">
          <mxGeometry x="-38.75" y="625" width="117.5" height="125" as="geometry" />
        </mxCell>
        <mxCell id="Rvb3EEz3BE0fVyhVUVa4-22" value="No" style="edgeStyle=orthogonalEdgeStyle;rounded=0;orthogonalLoop=1;jettySize=auto;html=1;exitX=0;exitY=0.5;exitDx=0;exitDy=0;entryX=1;entryY=1;entryDx=0;entryDy=0;strokeColor=#B20000;fillColor=#e51400;" parent="1" source="Rvb3EEz3BE0fVyhVUVa4-20" target="EbcurFLhAqaCf-2c7TV3-66" edge="1">
          <mxGeometry relative="1" as="geometry">
            <Array as="points">
              <mxPoint x="-130" y="925" />
              <mxPoint x="-130" y="856" />
            </Array>
          </mxGeometry>
        </mxCell>
        <mxCell id="Rvb3EEz3BE0fVyhVUVa4-28" value="Yes" style="edgeStyle=orthogonalEdgeStyle;rounded=0;orthogonalLoop=1;jettySize=auto;html=1;exitX=0.5;exitY=1;exitDx=0;exitDy=0;entryX=0.5;entryY=0;entryDx=0;entryDy=0;strokeColor=#80FF00;" parent="1" source="Rvb3EEz3BE0fVyhVUVa4-20" target="Rvb3EEz3BE0fVyhVUVa4-26" edge="1">
          <mxGeometry relative="1" as="geometry" />
        </mxCell>
        <mxCell id="Rvb3EEz3BE0fVyhVUVa4-20" value="Completed the CEH?" style="rhombus;whiteSpace=wrap;html=1;fillColor=#fff2cc;strokeColor=#d6b656;" parent="1" vertex="1">
          <mxGeometry x="655" y="880" width="100" height="90" as="geometry" />
        </mxCell>
        <mxCell id="Rvb3EEz3BE0fVyhVUVa4-25" value="No" style="edgeStyle=orthogonalEdgeStyle;rounded=0;orthogonalLoop=1;jettySize=auto;html=1;exitX=0.5;exitY=0;exitDx=0;exitDy=0;entryX=0;entryY=0.5;entryDx=0;entryDy=0;strokeColor=#B20000;fillColor=#e51400;" parent="1" source="Rvb3EEz3BE0fVyhVUVa4-23" target="EbcurFLhAqaCf-2c7TV3-80" edge="1">
          <mxGeometry relative="1" as="geometry" />
        </mxCell>
        <mxCell id="Rvb3EEz3BE0fVyhVUVa4-27" value="Yes" style="edgeStyle=orthogonalEdgeStyle;rounded=0;orthogonalLoop=1;jettySize=auto;html=1;strokeColor=#80FF00;fillColor=#d5e8d4;" parent="1" source="Rvb3EEz3BE0fVyhVUVa4-23" target="Rvb3EEz3BE0fVyhVUVa4-26" edge="1">
          <mxGeometry relative="1" as="geometry" />
        </mxCell>
        <mxCell id="Rvb3EEz3BE0fVyhVUVa4-23" value="Completed the PNPT?" style="rhombus;whiteSpace=wrap;html=1;fillColor=#fff2cc;strokeColor=#d6b656;" parent="1" vertex="1">
          <mxGeometry x="145" y="1080" width="80" height="80" as="geometry" />
        </mxCell>
        <mxCell id="Rvb3EEz3BE0fVyhVUVa4-31" style="edgeStyle=orthogonalEdgeStyle;rounded=0;orthogonalLoop=1;jettySize=auto;html=1;exitX=1;exitY=0.5;exitDx=0;exitDy=0;entryX=0;entryY=0.5;entryDx=0;entryDy=0;strokeColor=#000000;" parent="1" source="Rvb3EEz3BE0fVyhVUVa4-26" target="Rvb3EEz3BE0fVyhVUVa4-29" edge="1">
          <mxGeometry relative="1" as="geometry" />
        </mxCell>
        <mxCell id="Rvb3EEz3BE0fVyhVUVa4-26" value="GIAC Web Application Penetration Tester" style="ellipse;whiteSpace=wrap;html=1;fillColor=#e1d5e7;strokeColor=#9673a6;" parent="1" vertex="1">
          <mxGeometry x="265" y="1085" width="135" height="70" as="geometry" />
        </mxCell>
        <mxCell id="Rvb3EEz3BE0fVyhVUVa4-33" value="" style="edgeStyle=orthogonalEdgeStyle;rounded=0;orthogonalLoop=1;jettySize=auto;html=1;strokeColor=#000000;" parent="1" source="Rvb3EEz3BE0fVyhVUVa4-29" target="Rvb3EEz3BE0fVyhVUVa4-32" edge="1">
          <mxGeometry relative="1" as="geometry" />
        </mxCell>
        <mxCell id="Rvb3EEz3BE0fVyhVUVa4-29" value="GWAPT Course Work" style="whiteSpace=wrap;html=1;fillColor=#f5f5f5;strokeColor=#666666;fontColor=#333333;" parent="1" vertex="1">
          <mxGeometry x="445" y="1090" width="120" height="60" as="geometry" />
        </mxCell>
        <mxCell id="Rvb3EEz3BE0fVyhVUVa4-35" value="" style="edgeStyle=orthogonalEdgeStyle;rounded=0;orthogonalLoop=1;jettySize=auto;html=1;strokeColor=#000000;" parent="1" source="Rvb3EEz3BE0fVyhVUVa4-32" target="Rvb3EEz3BE0fVyhVUVa4-34" edge="1">
          <mxGeometry relative="1" as="geometry" />
        </mxCell>
        <mxCell id="Rvb3EEz3BE0fVyhVUVa4-32" value="GWAPT Exam" style="whiteSpace=wrap;html=1;fillColor=#f5f5f5;strokeColor=#666666;fontColor=#333333;" parent="1" vertex="1">
          <mxGeometry x="645" y="1090" width="120" height="60" as="geometry" />
        </mxCell>
        <mxCell id="Rvb3EEz3BE0fVyhVUVa4-37" value="Yes" style="edgeStyle=orthogonalEdgeStyle;rounded=0;orthogonalLoop=1;jettySize=auto;html=1;strokeColor=#80FF00;" parent="1" source="Rvb3EEz3BE0fVyhVUVa4-34" target="Rvb3EEz3BE0fVyhVUVa4-36" edge="1">
          <mxGeometry relative="1" as="geometry" />
        </mxCell>
        <mxCell id="Rvb3EEz3BE0fVyhVUVa4-38" value="No" style="edgeStyle=orthogonalEdgeStyle;rounded=0;orthogonalLoop=1;jettySize=auto;html=1;exitX=0.5;exitY=1;exitDx=0;exitDy=0;entryX=0.5;entryY=1;entryDx=0;entryDy=0;strokeColor=#B20000;fillColor=#e51400;" parent="1" source="Rvb3EEz3BE0fVyhVUVa4-34" target="Rvb3EEz3BE0fVyhVUVa4-32" edge="1">
          <mxGeometry relative="1" as="geometry" />
        </mxCell>
        <mxCell id="Rvb3EEz3BE0fVyhVUVa4-34" value="Pass?" style="rhombus;whiteSpace=wrap;html=1;fillColor=#fff2cc;strokeColor=#d6b656;" parent="1" vertex="1">
          <mxGeometry x="865" y="1080" width="80" height="80" as="geometry" />
        </mxCell>
        <mxCell id="aTY9Xm_yAR5NdKrloG2i-3" value="" style="edgeStyle=orthogonalEdgeStyle;rounded=0;orthogonalLoop=1;jettySize=auto;html=1;" parent="1" source="Rvb3EEz3BE0fVyhVUVa4-36" target="aTY9Xm_yAR5NdKrloG2i-2" edge="1">
          <mxGeometry relative="1" as="geometry" />
        </mxCell>
        <mxCell id="Rvb3EEz3BE0fVyhVUVa4-36" value="GWAPT Certification" style="ellipse;whiteSpace=wrap;html=1;fillColor=#d5e8d4;strokeColor=#82b366;" parent="1" vertex="1">
          <mxGeometry x="845" y="970" width="120" height="60" as="geometry" />
        </mxCell>
        <mxCell id="Rvb3EEz3BE0fVyhVUVa4-55" value="Yes" style="edgeStyle=orthogonalEdgeStyle;rounded=0;orthogonalLoop=1;jettySize=auto;html=1;strokeColor=#80FF00;" parent="1" source="Rvb3EEz3BE0fVyhVUVa4-52" target="Rvb3EEz3BE0fVyhVUVa4-54" edge="1">
          <mxGeometry relative="1" as="geometry" />
        </mxCell>
        <mxCell id="Rvb3EEz3BE0fVyhVUVa4-69" value="No" style="edgeStyle=orthogonalEdgeStyle;rounded=0;orthogonalLoop=1;jettySize=auto;html=1;exitX=0.5;exitY=0;exitDx=0;exitDy=0;entryX=0;entryY=0.5;entryDx=0;entryDy=0;strokeColor=#B20000;fillColor=#e51400;" parent="1" source="Rvb3EEz3BE0fVyhVUVa4-52" target="Rvb3EEz3BE0fVyhVUVa4-63" edge="1">
          <mxGeometry relative="1" as="geometry">
            <Array as="points">
              <mxPoint x="-439" y="1330" />
              <mxPoint x="-4" y="1330" />
              <mxPoint x="-4" y="1360" />
            </Array>
          </mxGeometry>
        </mxCell>
        <mxCell id="Rvb3EEz3BE0fVyhVUVa4-52" value="Do I work &lt;br&gt;with &lt;br&gt;Mobile Devices?" style="rhombus;whiteSpace=wrap;html=1;fillColor=#fff2cc;strokeColor=#d6b656;" parent="1" vertex="1">
          <mxGeometry x="-508.75" y="1340" width="140" height="107.5" as="geometry" />
        </mxCell>
        <mxCell id="quEuBbzcooWKiQeAtJUy-3" style="edgeStyle=orthogonalEdgeStyle;rounded=0;orthogonalLoop=1;jettySize=auto;html=1;exitX=1;exitY=0.5;exitDx=0;exitDy=0;entryX=0;entryY=0.5;entryDx=0;entryDy=0;" edge="1" parent="1" source="Rvb3EEz3BE0fVyhVUVa4-54" target="Rvb3EEz3BE0fVyhVUVa4-56">
          <mxGeometry relative="1" as="geometry" />
        </mxCell>
        <mxCell id="Rvb3EEz3BE0fVyhVUVa4-54" value="GIAC Mobile Device Security Analyst" style="ellipse;whiteSpace=wrap;html=1;fillColor=#e1d5e7;strokeColor=#9673a6;" parent="1" vertex="1">
          <mxGeometry x="-190" y="1363.75" width="120" height="60" as="geometry" />
        </mxCell>
        <mxCell id="Rvb3EEz3BE0fVyhVUVa4-59" value="" style="edgeStyle=orthogonalEdgeStyle;rounded=0;orthogonalLoop=1;jettySize=auto;html=1;strokeColor=#000000;" parent="1" source="Rvb3EEz3BE0fVyhVUVa4-56" target="Rvb3EEz3BE0fVyhVUVa4-58" edge="1">
          <mxGeometry relative="1" as="geometry" />
        </mxCell>
        <mxCell id="Rvb3EEz3BE0fVyhVUVa4-56" value="GMOB Course Work" style="whiteSpace=wrap;html=1;fillColor=#f5f5f5;strokeColor=#666666;fontColor=#333333;" parent="1" vertex="1">
          <mxGeometry x="-20" y="1363.75" width="120" height="60" as="geometry" />
        </mxCell>
        <mxCell id="Rvb3EEz3BE0fVyhVUVa4-61" value="" style="edgeStyle=orthogonalEdgeStyle;rounded=0;orthogonalLoop=1;jettySize=auto;html=1;strokeColor=#000000;" parent="1" source="Rvb3EEz3BE0fVyhVUVa4-58" target="Rvb3EEz3BE0fVyhVUVa4-60" edge="1">
          <mxGeometry relative="1" as="geometry" />
        </mxCell>
        <mxCell id="Rvb3EEz3BE0fVyhVUVa4-58" value="GMOB Exam" style="whiteSpace=wrap;html=1;fillColor=#f5f5f5;strokeColor=#666666;fontColor=#333333;" parent="1" vertex="1">
          <mxGeometry x="145" y="1363.75" width="120" height="60" as="geometry" />
        </mxCell>
        <mxCell id="Rvb3EEz3BE0fVyhVUVa4-62" value="No" style="edgeStyle=orthogonalEdgeStyle;rounded=0;orthogonalLoop=1;jettySize=auto;html=1;exitX=0;exitY=0.5;exitDx=0;exitDy=0;entryX=0.25;entryY=1;entryDx=0;entryDy=0;strokeColor=#B20000;fillColor=#e51400;" parent="1" source="Rvb3EEz3BE0fVyhVUVa4-60" target="Rvb3EEz3BE0fVyhVUVa4-58" edge="1">
          <mxGeometry relative="1" as="geometry">
            <Array as="points">
              <mxPoint x="165" y="1440" />
              <mxPoint x="175" y="1440" />
            </Array>
          </mxGeometry>
        </mxCell>
        <mxCell id="Rvb3EEz3BE0fVyhVUVa4-64" value="Yes" style="edgeStyle=orthogonalEdgeStyle;rounded=0;orthogonalLoop=1;jettySize=auto;html=1;strokeColor=#80FF00;entryX=0.5;entryY=1;entryDx=0;entryDy=0;exitX=1;exitY=0.5;exitDx=0;exitDy=0;" parent="1" source="Rvb3EEz3BE0fVyhVUVa4-60" target="Rvb3EEz3BE0fVyhVUVa4-63" edge="1">
          <mxGeometry relative="1" as="geometry">
            <Array as="points">
              <mxPoint x="420" y="1620" />
            </Array>
          </mxGeometry>
        </mxCell>
        <mxCell id="Rvb3EEz3BE0fVyhVUVa4-66" value="" style="edgeStyle=orthogonalEdgeStyle;rounded=0;orthogonalLoop=1;jettySize=auto;html=1;strokeColor=#000000;" parent="1" source="Rvb3EEz3BE0fVyhVUVa4-63" target="Rvb3EEz3BE0fVyhVUVa4-65" edge="1">
          <mxGeometry relative="1" as="geometry" />
        </mxCell>
        <mxCell id="Rvb3EEz3BE0fVyhVUVa4-63" value="E-Learn Web Penetration Tester Certification" style="ellipse;whiteSpace=wrap;html=1;fillColor=#e1d5e7;strokeColor=#9673a6;" parent="1" vertex="1">
          <mxGeometry x="360" y="1330" width="120" height="60" as="geometry" />
        </mxCell>
        <mxCell id="Rvb3EEz3BE0fVyhVUVa4-68" value="" style="edgeStyle=orthogonalEdgeStyle;rounded=0;orthogonalLoop=1;jettySize=auto;html=1;strokeColor=#000000;entryX=0;entryY=0.5;entryDx=0;entryDy=0;exitX=0.75;exitY=0;exitDx=0;exitDy=0;" parent="1" source="Rvb3EEz3BE0fVyhVUVa4-65" target="Rvb3EEz3BE0fVyhVUVa4-67" edge="1">
          <mxGeometry relative="1" as="geometry" />
        </mxCell>
        <mxCell id="Rvb3EEz3BE0fVyhVUVa4-65" value="eWPT Exam" style="whiteSpace=wrap;html=1;fillColor=#f5f5f5;strokeColor=#666666;fontColor=#333333;" parent="1" vertex="1">
          <mxGeometry x="495" y="1420" width="120" height="60" as="geometry" />
        </mxCell>
        <mxCell id="Rvb3EEz3BE0fVyhVUVa4-71" value="No" style="edgeStyle=orthogonalEdgeStyle;rounded=0;orthogonalLoop=1;jettySize=auto;html=1;strokeColor=#B20000;fillColor=#e51400;entryX=0.5;entryY=0;entryDx=0;entryDy=0;" parent="1" source="Rvb3EEz3BE0fVyhVUVa4-67" target="Rvb3EEz3BE0fVyhVUVa4-70" edge="1">
          <mxGeometry relative="1" as="geometry" />
        </mxCell>
        <mxCell id="Rvb3EEz3BE0fVyhVUVa4-73" value="Yes" style="edgeStyle=orthogonalEdgeStyle;rounded=0;orthogonalLoop=1;jettySize=auto;html=1;exitX=0.5;exitY=0;exitDx=0;exitDy=0;entryX=0.5;entryY=1;entryDx=0;entryDy=0;strokeColor=#80FF00;" parent="1" source="Rvb3EEz3BE0fVyhVUVa4-67" target="EbcurFLhAqaCf-2c7TV3-146" edge="1">
          <mxGeometry relative="1" as="geometry">
            <Array as="points">
              <mxPoint x="920" y="1340" />
              <mxPoint x="920" y="1350" />
              <mxPoint x="1243" y="1350" />
            </Array>
          </mxGeometry>
        </mxCell>
        <mxCell id="Rvb3EEz3BE0fVyhVUVa4-67" value="Pass?" style="rhombus;whiteSpace=wrap;html=1;fillColor=#fff2cc;strokeColor=#d6b656;" parent="1" vertex="1">
          <mxGeometry x="605" y="1340" width="80" height="80" as="geometry" />
        </mxCell>
        <mxCell id="Rvb3EEz3BE0fVyhVUVa4-72" style="edgeStyle=orthogonalEdgeStyle;rounded=0;orthogonalLoop=1;jettySize=auto;html=1;exitX=0;exitY=0.5;exitDx=0;exitDy=0;entryX=1;entryY=0.5;entryDx=0;entryDy=0;strokeColor=#000000;" parent="1" source="Rvb3EEz3BE0fVyhVUVa4-70" target="Rvb3EEz3BE0fVyhVUVa4-65" edge="1">
          <mxGeometry relative="1" as="geometry" />
        </mxCell>
        <mxCell id="Rvb3EEz3BE0fVyhVUVa4-70" value="eWPT Course Work" style="whiteSpace=wrap;html=1;fillColor=#f5f5f5;strokeColor=#666666;fontColor=#333333;" parent="1" vertex="1">
          <mxGeometry x="745" y="1420" width="120" height="60" as="geometry" />
        </mxCell>
        <mxCell id="aTY9Xm_yAR5NdKrloG2i-5" value="Yes" style="edgeStyle=orthogonalEdgeStyle;rounded=0;orthogonalLoop=1;jettySize=auto;html=1;strokeColor=#80FF00;exitX=0.5;exitY=0;exitDx=0;exitDy=0;" parent="1" source="aTY9Xm_yAR5NdKrloG2i-2" target="aTY9Xm_yAR5NdKrloG2i-4" edge="1">
          <mxGeometry relative="1" as="geometry" />
        </mxCell>
        <mxCell id="aTY9Xm_yAR5NdKrloG2i-6" value="No" style="edgeStyle=orthogonalEdgeStyle;rounded=0;orthogonalLoop=1;jettySize=auto;html=1;exitX=1;exitY=0.5;exitDx=0;exitDy=0;fillColor=#e51400;strokeColor=#B20000;entryX=0.5;entryY=0;entryDx=0;entryDy=0;" parent="1" source="aTY9Xm_yAR5NdKrloG2i-2" target="EbcurFLhAqaCf-2c7TV3-143" edge="1">
          <mxGeometry relative="1" as="geometry">
            <mxPoint x="1115" y="970" as="targetPoint" />
          </mxGeometry>
        </mxCell>
        <mxCell id="aTY9Xm_yAR5NdKrloG2i-8" value="Yes" style="edgeStyle=orthogonalEdgeStyle;rounded=0;orthogonalLoop=1;jettySize=auto;html=1;exitX=0.5;exitY=0;exitDx=0;exitDy=0;entryX=1;entryY=0.5;entryDx=0;entryDy=0;strokeColor=#80FF00;" parent="1" source="aTY9Xm_yAR5NdKrloG2i-2" target="EbcurFLhAqaCf-2c7TV3-143" edge="1">
          <mxGeometry relative="1" as="geometry">
            <mxPoint x="1175" y="1000" as="targetPoint" />
          </mxGeometry>
        </mxCell>
        <mxCell id="aTY9Xm_yAR5NdKrloG2i-2" value="Interested&lt;br&gt;in Physical&lt;br&gt;Penetration testing?" style="rhombus;whiteSpace=wrap;html=1;fillColor=#fff2cc;strokeColor=#d6b656;" parent="1" vertex="1">
          <mxGeometry x="970" y="720" width="150" height="120" as="geometry" />
        </mxCell>
        <mxCell id="aTY9Xm_yAR5NdKrloG2i-10" value="" style="edgeStyle=orthogonalEdgeStyle;rounded=0;orthogonalLoop=1;jettySize=auto;html=1;strokeColor=#000000;" parent="1" source="aTY9Xm_yAR5NdKrloG2i-4" target="aTY9Xm_yAR5NdKrloG2i-9" edge="1">
          <mxGeometry relative="1" as="geometry" />
        </mxCell>
        <mxCell id="aTY9Xm_yAR5NdKrloG2i-4" value="Physical Penetration Testing Training" style="ellipse;whiteSpace=wrap;html=1;fillColor=#e1d5e7;strokeColor=#9673a6;" parent="1" vertex="1">
          <mxGeometry x="985" y="550" width="120" height="60" as="geometry" />
        </mxCell>
        <mxCell id="aTY9Xm_yAR5NdKrloG2i-9" value="Get Certified in Locksmithing" style="ellipse;whiteSpace=wrap;html=1;fillColor=#e1d5e7;strokeColor=#9673a6;" parent="1" vertex="1">
          <mxGeometry x="985" y="410" width="120" height="60" as="geometry" />
        </mxCell>
        <mxCell id="aTY9Xm_yAR5NdKrloG2i-13" value="Yes" style="edgeStyle=orthogonalEdgeStyle;rounded=0;orthogonalLoop=1;jettySize=auto;html=1;exitX=0.5;exitY=1;exitDx=0;exitDy=0;strokeColor=#80FF00;entryX=0;entryY=0.5;entryDx=0;entryDy=0;" parent="1" source="aTY9Xm_yAR5NdKrloG2i-11" target="aTY9Xm_yAR5NdKrloG2i-15" edge="1">
          <mxGeometry x="-0.6316" relative="1" as="geometry">
            <mxPoint x="980" y="1740" as="targetPoint" />
            <mxPoint as="offset" />
          </mxGeometry>
        </mxCell>
        <mxCell id="aTY9Xm_yAR5NdKrloG2i-14" value="No" style="edgeStyle=orthogonalEdgeStyle;rounded=0;orthogonalLoop=1;jettySize=auto;html=1;exitX=0;exitY=0.5;exitDx=0;exitDy=0;entryX=1;entryY=0.5;entryDx=0;entryDy=0;strokeColor=#B20000;fillColor=#e51400;" parent="1" source="aTY9Xm_yAR5NdKrloG2i-11" target="EbcurFLhAqaCf-2c7TV3-157" edge="1">
          <mxGeometry relative="1" as="geometry" />
        </mxCell>
        <mxCell id="aTY9Xm_yAR5NdKrloG2i-11" value="Completed&lt;br&gt;eJPT?" style="rhombus;whiteSpace=wrap;html=1;fillColor=#fff2cc;strokeColor=#d6b656;" parent="1" vertex="1">
          <mxGeometry x="265" y="1250" width="80" height="80" as="geometry" />
        </mxCell>
        <mxCell id="aTY9Xm_yAR5NdKrloG2i-15" value="Offensive Security Web Assessor" style="ellipse;whiteSpace=wrap;html=1;fillColor=#e1d5e7;strokeColor=#9673a6;" parent="1" vertex="1">
          <mxGeometry x="465" y="1510" width="120" height="80" as="geometry" />
        </mxCell>
        <mxCell id="aTY9Xm_yAR5NdKrloG2i-20" value="" style="edgeStyle=orthogonalEdgeStyle;rounded=0;orthogonalLoop=1;jettySize=auto;html=1;strokeColor=#000000;" parent="1" source="aTY9Xm_yAR5NdKrloG2i-16" target="aTY9Xm_yAR5NdKrloG2i-19" edge="1">
          <mxGeometry relative="1" as="geometry" />
        </mxCell>
        <mxCell id="aTY9Xm_yAR5NdKrloG2i-16" value="OSWA Exam" style="rounded=0;whiteSpace=wrap;html=1;fillColor=#f5f5f5;fontColor=#333333;strokeColor=#666666;" parent="1" vertex="1">
          <mxGeometry x="655" y="1520" width="120" height="60" as="geometry" />
        </mxCell>
        <mxCell id="quEuBbzcooWKiQeAtJUy-5" style="edgeStyle=orthogonalEdgeStyle;rounded=0;orthogonalLoop=1;jettySize=auto;html=1;exitX=0;exitY=0.5;exitDx=0;exitDy=0;entryX=0.5;entryY=0;entryDx=0;entryDy=0;" edge="1" parent="1" source="aTY9Xm_yAR5NdKrloG2i-17" target="aTY9Xm_yAR5NdKrloG2i-16">
          <mxGeometry relative="1" as="geometry" />
        </mxCell>
        <mxCell id="aTY9Xm_yAR5NdKrloG2i-17" value="OSWA Course Work" style="whiteSpace=wrap;html=1;rounded=0;fillColor=#f5f5f5;fontColor=#333333;strokeColor=#666666;" parent="1" vertex="1">
          <mxGeometry x="910" y="1470" width="120" height="60" as="geometry" />
        </mxCell>
        <mxCell id="aTY9Xm_yAR5NdKrloG2i-21" style="edgeStyle=orthogonalEdgeStyle;rounded=0;orthogonalLoop=1;jettySize=auto;html=1;exitX=0.5;exitY=1;exitDx=0;exitDy=0;strokeColor=#80FF00;entryX=0;entryY=0.5;entryDx=0;entryDy=0;" parent="1" source="aTY9Xm_yAR5NdKrloG2i-19" target="EbcurFLhAqaCf-2c7TV3-204" edge="1">
          <mxGeometry relative="1" as="geometry">
            <Array as="points">
              <mxPoint x="905" y="1690" />
              <mxPoint x="1070" y="1690" />
              <mxPoint x="1070" y="1430" />
            </Array>
          </mxGeometry>
        </mxCell>
        <mxCell id="aTY9Xm_yAR5NdKrloG2i-22" value="Yes" style="edgeLabel;html=1;align=center;verticalAlign=middle;resizable=0;points=[];" parent="aTY9Xm_yAR5NdKrloG2i-21" vertex="1" connectable="0">
          <mxGeometry x="-0.5638" y="1" relative="1" as="geometry">
            <mxPoint as="offset" />
          </mxGeometry>
        </mxCell>
        <mxCell id="aTY9Xm_yAR5NdKrloG2i-19" value="Pass?" style="rhombus;whiteSpace=wrap;html=1;rounded=0;fillColor=#fff2cc;strokeColor=#d6b656;" parent="1" vertex="1">
          <mxGeometry x="865" y="1590" width="80" height="80" as="geometry" />
        </mxCell>
        <mxCell id="aTY9Xm_yAR5NdKrloG2i-26" value="" style="edgeStyle=orthogonalEdgeStyle;rounded=0;orthogonalLoop=1;jettySize=auto;html=1;strokeColor=#000000;" parent="1" source="aTY9Xm_yAR5NdKrloG2i-23" target="aTY9Xm_yAR5NdKrloG2i-25" edge="1">
          <mxGeometry relative="1" as="geometry" />
        </mxCell>
        <mxCell id="aTY9Xm_yAR5NdKrloG2i-23" value="eWPTX Course Work" style="whiteSpace=wrap;html=1;fillColor=#f5f5f5;strokeColor=#666666;fontColor=#333333;" parent="1" vertex="1">
          <mxGeometry x="-368.75" y="2110" width="120" height="60" as="geometry" />
        </mxCell>
        <mxCell id="aTY9Xm_yAR5NdKrloG2i-28" value="" style="edgeStyle=orthogonalEdgeStyle;rounded=0;orthogonalLoop=1;jettySize=auto;html=1;strokeColor=#000000;" parent="1" source="aTY9Xm_yAR5NdKrloG2i-25" target="aTY9Xm_yAR5NdKrloG2i-27" edge="1">
          <mxGeometry relative="1" as="geometry" />
        </mxCell>
        <mxCell id="aTY9Xm_yAR5NdKrloG2i-25" value="eWPTX Exam" style="whiteSpace=wrap;html=1;fillColor=#f5f5f5;strokeColor=#666666;fontColor=#333333;" parent="1" vertex="1">
          <mxGeometry x="-568.75" y="2110" width="120" height="60" as="geometry" />
        </mxCell>
        <mxCell id="aTY9Xm_yAR5NdKrloG2i-29" value="No" style="edgeStyle=orthogonalEdgeStyle;rounded=0;orthogonalLoop=1;jettySize=auto;html=1;exitX=0.5;exitY=0;exitDx=0;exitDy=0;entryX=0.5;entryY=0;entryDx=0;entryDy=0;strokeColor=#B20000;fillColor=#e51400;" parent="1" source="aTY9Xm_yAR5NdKrloG2i-27" target="aTY9Xm_yAR5NdKrloG2i-25" edge="1">
          <mxGeometry relative="1" as="geometry">
            <Array as="points">
              <mxPoint x="-709" y="2080" />
              <mxPoint x="-509" y="2080" />
            </Array>
          </mxGeometry>
        </mxCell>
        <mxCell id="aTY9Xm_yAR5NdKrloG2i-31" value="" style="edgeStyle=orthogonalEdgeStyle;rounded=0;orthogonalLoop=1;jettySize=auto;html=1;strokeColor=#000000;" parent="1" source="aTY9Xm_yAR5NdKrloG2i-27" target="aTY9Xm_yAR5NdKrloG2i-30" edge="1">
          <mxGeometry relative="1" as="geometry">
            <Array as="points">
              <mxPoint x="-709" y="2280" />
              <mxPoint x="264" y="2280" />
            </Array>
          </mxGeometry>
        </mxCell>
        <mxCell id="aTY9Xm_yAR5NdKrloG2i-27" value="Pass?" style="rhombus;whiteSpace=wrap;html=1;fillColor=#fff2cc;strokeColor=#d6b656;" parent="1" vertex="1">
          <mxGeometry x="-748.75" y="2100" width="80" height="80" as="geometry" />
        </mxCell>
        <mxCell id="aTY9Xm_yAR5NdKrloG2i-30" value="Pursue Whatever Interests you" style="ellipse;whiteSpace=wrap;html=1;fillColor=#d5e8d4;strokeColor=#82b366;gradientColor=#97d077;" parent="1" vertex="1">
          <mxGeometry x="7.5" y="2330" width="512.5" height="190" as="geometry" />
        </mxCell>
        <mxCell id="Rvb3EEz3BE0fVyhVUVa4-60" value="Pass?" style="rhombus;whiteSpace=wrap;html=1;fillColor=#fff2cc;strokeColor=#d6b656;" parent="1" vertex="1">
          <mxGeometry x="165" y="1580" width="80" height="80" as="geometry" />
        </mxCell>
      </root>
    </mxGraphModel>
  </diagram>
</mxfile>
